<?xml version="1.0" encoding="iso-8859-1"?>
<!-- Generator: Adobe Illustrator 21.0.0, SVG Export Plug-In . SVG Version: 6.00 Build 0)  -->
<svg version="1.0" id="Layer_1" xmlns="http://www.w3.org/2000/svg" xmlns:xlink="http://www.w3.org/1999/xlink" x="0px" y="0px"
	 viewBox="0 0 171 66" style="enable-background:new 0 0 171 66;" xml:space="preserve">
<g>
	<g>
		<g>
			<path style="fill:#F99E20;" d="M135.5,23.7l-5.1-8.9h17.1l-2.8,4.9h5.7l2.8,4.9h-15.9C136.5,24.7,135.8,24.3,135.5,23.7z"/>
			<path style="fill:#A0237E;" d="M144.6,19.8H156L164.5,5h-10.2c-0.7,0-1.4,0.4-1.7,1L144.6,19.8z"/>
			<path style="fill:#E12826;" d="M141.7,14.8h5.7l2.8-4.9l-5.7-9.8L139.4,9c-0.4,0.6-0.4,1.4,0,2L141.7,14.8L141.7,14.8z"/>
			<path style="fill:#A0237E;" d="M136.1,34.5h10.2c0.7,0,1.4-0.4,1.7-1l2.3-3.9l-2.8-4.9h-5.7L136.1,34.5z"/>
			<path style="fill:#E12826;" d="M147.4,24.7l8.5,14.8l5.1-8.9c0.4-0.6,0.4-1.4,0-2l-2.3-3.9l-5.7-9.8l-2.8,4.9l2.8,4.9H147.4z"/>
			<path style="fill:#F99E20;" d="M158.8,24.7h11.4l-5.1-8.9c-0.4-0.6-1-1-1.7-1h-4.5l-2.8,4.9L158.8,24.7z"/>
		</g>
		<polygon style="fill:#712878;" points="144.6,19.8 153.1,14.8 150.3,19.8 		"/>
		<polygon style="fill:#AC1F2D;" points="153.1,24.7 153.1,14.8 150.3,19.8 		"/>
		<polygon style="fill:#F05023;" points="144.6,19.8 153.1,24.7 150.3,19.8 		"/>
	</g>
	<g>
		<g>
			<g id="XMLID_67_">
				<g id="XMLID_68_">
					<path id="XMLID_73_" style="fill:#E12826;" d="M34.2,38.5v20.2C32.9,58.9,32.1,59,31,59c-2.9,0-4.7-1.2-4.7-5.6V38.5h-7.2v14.9
						c0,8.2,5.2,11.4,12,11.4c4.6,0,7.3-0.7,10.5-2V38.5H34.2z"/>
					<polygon id="XMLID_72_" style="fill:#E12826;" points="1.1,64.2 1.1,38.5 8.3,38.5 8.3,58.2 17.5,58.2 17.5,64.2 					"/>
					<path id="XMLID_71_" style="fill:#E12826;" d="M78.3,64.2c-0.5-11.8-2.1-18.3-6.6-25.7h-6.1c-1,1.5-4,5.8-4.5,9.2h-0.2
						c-0.5-3.4-3.5-7.7-4.5-9.2h-6.1c-4.5,7.4-6.1,14-6.6,25.7h7.6c0-3.6-0.3-11.2,3-17.6c1.9,2.5,3,8.5,3,13v4.6h7.5v-4.6
						c0-4.6,1.1-10.5,3-13c3.2,6.4,3,14,3,17.6H78.3z"/>
					<path id="XMLID_70_" style="fill:#E12826;" d="M124.6,51.2l7.6-12.7h-8.7l-3.5,6.9c-0.2,0.3-0.3,0.7-0.4,1.1h-0.1
						c-0.1-0.4-0.2-0.8-0.4-1.1l-3.5-6.9H107l7.5,12.6L106,64.2h8.7l4.2-7.8c0.2-0.3,0.3-0.6,0.4-0.9h0.1c0.1,0.3,0.2,0.6,0.3,0.9
						l4.2,7.8h8.6L124.6,51.2z"/>
					<path id="XMLID_69_" style="fill:#E12826;" d="M87.9,38.5c-7.6,9.3-7.7,24.2-7.8,25.7H88c0-9.9,2.2-17.2,4.3-19.7l0,0
						c2.1,2.4,4.3,9.8,4.3,19.7h7.9c-0.1-1.5-0.2-16.4-7.8-25.7C96.7,38.5,87.9,38.5,87.9,38.5z"/>
				</g>
			</g>
		</g>
	</g>
</g>
</svg>
