<?xml version="1.0" encoding="utf-8"?>
<!-- Generator: Adobe Illustrator 16.0.0, SVG Export Plug-In . SVG Version: 6.00 Build 0)  -->
<!DOCTYPE svg PUBLIC "-//W3C//DTD SVG 1.1//EN" "http://www.w3.org/Graphics/SVG/1.1/DTD/svg11.dtd">
<svg version="1.1" id="Layer_1" xmlns="http://www.w3.org/2000/svg" xmlns:xlink="http://www.w3.org/1999/xlink" x="0px" y="0px"
	 width="219.667px" height="100px" viewBox="0 0 219.667 100" enable-background="new 0 0 219.667 100" xml:space="preserve">
<g>
	<polygon fill="#4C2A02" points="14.191,10.199 18.036,3.084 39.235,35.872 43.519,26.688 51.259,26.518 23.766,77.748 
		15.287,77.748 26.458,58.688 5.958,25.386 9.343,18.782 30.206,51.6 35.717,42.522 	"/>
	<polygon fill="#4C2A02" points="62.314,26.879 69.636,26.879 42.246,77.748 33.172,77.748 	"/>
</g>
<g>
	<linearGradient id="SVGID_1_" gradientUnits="userSpaceOnUse" x1="26.9766" y1="4.3989" x2="26.9766" y2="77.8804">
		<stop  offset="0" style="stop-color:#6B4007"/>
		<stop  offset="0.4194" style="stop-color:#A97510"/>
		<stop  offset="1" style="stop-color:#986515"/>
	</linearGradient>
	<polygon fill="url(#SVGID_1_)" points="13.53,11.38 17.442,4.399 36.851,35.077 41.636,26.443 49.131,26.443 21.576,77.88 
		13.567,77.88 24.074,57.893 4.822,27.545 8.497,20.564 27.821,50.805 33.333,41.727 	"/>
	<linearGradient id="SVGID_2_" gradientUnits="userSpaceOnUse" x1="50.0122" y1="26.8794" x2="50.0122" y2="77.7485">
		<stop  offset="0" style="stop-color:#6B4007"/>
		<stop  offset="0.4194" style="stop-color:#A97510"/>
		<stop  offset="1" style="stop-color:#986515"/>
	</linearGradient>
	<polygon fill="url(#SVGID_2_)" points="60.006,26.879 67.647,26.879 40.02,77.748 32.377,77.748 	"/>
</g>
<g>
	<g>
		<path d="M72.424,67.972l-1.467,7.427h-4.951l1.498-7.641l-5.5-13.753h4.951l3.821,9.535l7.67-9.535h5.104L72.424,67.972z"/>
		<path d="M82.33,66.475c0-7.305,5.349-12.837,13.234-12.837c6.509,0,10.421,3.79,10.421,9.292c0,7.304-5.348,12.836-13.233,12.836
			C86.242,75.766,82.33,71.976,82.33,66.475z M100.974,63.204c0-3.178-2.079-5.349-5.838-5.349c-4.828,0-7.792,3.82-7.792,8.344
			c0,3.179,2.078,5.349,5.837,5.349C98.009,71.548,100.974,67.728,100.974,63.204z"/>
		<path d="M112.958,54.005h4.982l-3.484,17.359h10.727l-0.825,4.034h-15.678L112.958,54.005z"/>
		<path d="M128.671,66.475c0-7.305,5.349-12.837,13.233-12.837c6.51,0,10.422,3.79,10.422,9.292c0,7.304-5.349,12.836-13.233,12.836
			C132.583,75.766,128.671,71.976,128.671,66.475z M147.314,63.204c0-3.178-2.079-5.349-5.838-5.349
			c-4.829,0-7.793,3.82-7.793,8.344c0,3.179,2.078,5.349,5.837,5.349C144.349,71.548,147.314,67.728,147.314,63.204z"/>
		<path d="M152.179,72.557l3.27-3.118c0.887,1.437,2.14,2.262,3.76,2.262c1.895,0,3.086-1.039,3.545-3.331l2.047-10.392h-7.486
			l0.793-3.973h12.409l-2.842,14.12c-1.101,5.623-3.882,7.641-8.527,7.641C155.876,75.766,153.493,74.635,152.179,72.557z"/>
		<path d="M180.726,57.978l-0.916,4.646h9.933l-0.765,3.852h-9.963l-0.979,4.951h11.675l-0.825,3.973h-16.564l4.278-21.394h16.168
			l-0.825,3.973H180.726z"/>
		<path d="M201.94,58.039h-6.847l0.825-4.034h18.643l-0.825,4.034h-6.814l-3.484,17.359h-4.952L201.94,58.039z"/>
	</g>
</g>
<rect x="111" y="84" fill="#927345" width="2" height="13"/>
<g>
	<g>
		<path fill="#986515" d="M23.15,84.704l-3.504,6.753v3.362h-2.46v-3.362l-3.505-6.753h2.804l1.946,4.121l1.946-4.121H23.15z"/>
		<path fill="#986515" d="M31.383,87.229c0.625,0.329,1.116,0.804,1.474,1.424c0.358,0.619,0.536,1.345,0.536,2.174
			c0,0.83-0.178,1.556-0.536,2.175c-0.358,0.62-0.849,1.095-1.474,1.424s-1.333,0.493-2.125,0.493c-0.792,0-1.501-0.164-2.131-0.493
			c-0.629-0.329-1.123-0.804-1.481-1.424c-0.357-0.619-0.536-1.345-0.536-2.175c0-0.829,0.179-1.555,0.536-2.174
			c0.358-0.62,0.852-1.095,1.481-1.424c0.63-0.329,1.34-0.493,2.131-0.493C30.051,86.736,30.758,86.9,31.383,87.229z M28.079,89.36
			c-0.319,0.339-0.479,0.829-0.479,1.467c0,0.64,0.16,1.126,0.479,1.46c0.319,0.334,0.713,0.5,1.18,0.5
			c0.468,0,0.859-0.166,1.174-0.5c0.314-0.334,0.472-0.82,0.472-1.46c0-0.638-0.158-1.128-0.472-1.467
			c-0.315-0.338-0.706-0.507-1.174-0.507C28.792,88.854,28.398,89.022,28.079,89.36z"/>
		<path fill="#986515" d="M44.038,86.836v7.983h-2.46v-1.445c-0.229,0.468-0.569,0.84-1.023,1.116
			c-0.453,0.276-0.98,0.415-1.581,0.415c-0.915,0-1.643-0.306-2.182-0.916c-0.539-0.61-0.808-1.449-0.808-2.518v-4.636h2.432v4.335
			c0,0.544,0.141,0.966,0.422,1.266c0.281,0.301,0.66,0.451,1.137,0.451c0.495,0,0.887-0.157,1.173-0.473
			c0.287-0.314,0.429-0.763,0.429-1.345v-4.234H44.038z"/>
		<path fill="#986515" d="M58.31,93.445c-0.272,0.449-0.673,0.807-1.203,1.073c-0.529,0.268-1.17,0.4-1.924,0.4
			c-1.135,0-2.069-0.276-2.804-0.829c-0.735-0.554-1.136-1.326-1.202-2.318h2.604c0.038,0.382,0.174,0.683,0.407,0.901
			c0.234,0.22,0.532,0.329,0.895,0.329c0.315,0,0.563-0.085,0.744-0.257c0.181-0.172,0.271-0.401,0.271-0.688
			c0-0.257-0.083-0.472-0.25-0.644s-0.374-0.313-0.622-0.422c-0.249-0.109-0.592-0.24-1.031-0.394
			c-0.638-0.22-1.161-0.432-1.566-0.637s-0.754-0.51-1.044-0.916c-0.292-0.404-0.437-0.932-0.437-1.58
			c0-0.601,0.153-1.121,0.458-1.56c0.305-0.438,0.727-0.775,1.266-1.009c0.54-0.233,1.157-0.351,1.853-0.351
			c1.125,0,2.02,0.268,2.682,0.801c0.663,0.535,1.038,1.27,1.123,2.204h-2.646c-0.047-0.334-0.169-0.599-0.365-0.795
			c-0.196-0.195-0.46-0.293-0.794-0.293c-0.286,0-0.517,0.076-0.694,0.229c-0.176,0.152-0.265,0.376-0.265,0.672
			c0,0.238,0.079,0.441,0.237,0.608c0.157,0.167,0.354,0.303,0.594,0.407c0.239,0.105,0.582,0.239,1.03,0.4
			c0.648,0.22,1.178,0.437,1.589,0.651c0.41,0.215,0.763,0.527,1.058,0.937c0.295,0.411,0.443,0.944,0.443,1.604
			C58.717,92.506,58.581,92.998,58.31,93.445z"/>
		<path fill="#986515" d="M69.017,91.271H63.48c0.029,0.601,0.181,1.032,0.458,1.295c0.276,0.262,0.629,0.393,1.059,0.393
			c0.362,0,0.663-0.091,0.901-0.271c0.238-0.182,0.396-0.415,0.472-0.701h2.59c-0.106,0.563-0.334,1.065-0.687,1.51
			c-0.354,0.443-0.801,0.791-1.345,1.044c-0.543,0.253-1.15,0.379-1.817,0.379c-0.782,0-1.476-0.164-2.082-0.493
			c-0.605-0.329-1.08-0.804-1.423-1.424c-0.344-0.619-0.515-1.345-0.515-2.175c0-0.839,0.169-1.566,0.507-2.182
			s0.814-1.087,1.424-1.416c0.611-0.329,1.307-0.493,2.089-0.493c0.792,0,1.488,0.162,2.088,0.485
			c0.602,0.325,1.066,0.78,1.396,1.367c0.329,0.587,0.493,1.262,0.493,2.024C69.088,90.813,69.065,91.033,69.017,91.271z
			 M66.191,89.061c-0.291-0.262-0.651-0.394-1.08-0.394c-0.448,0-0.82,0.134-1.116,0.401c-0.295,0.267-0.463,0.657-0.5,1.173h3.119
			C66.623,89.717,66.483,89.323,66.191,89.061z"/>
		<path fill="#986515" d="M74.239,84.232v10.587h-2.446V84.232H74.239z"/>
		<path fill="#986515" d="M84.869,91.271h-5.537c0.029,0.601,0.181,1.032,0.458,1.295c0.276,0.262,0.629,0.393,1.059,0.393
			c0.362,0,0.663-0.091,0.901-0.271c0.238-0.182,0.396-0.415,0.472-0.701h2.59c-0.105,0.563-0.334,1.065-0.687,1.51
			c-0.353,0.443-0.801,0.791-1.345,1.044c-0.544,0.253-1.15,0.379-1.817,0.379c-0.782,0-1.476-0.164-2.082-0.493
			c-0.605-0.329-1.08-0.804-1.423-1.424c-0.344-0.619-0.515-1.345-0.515-2.175c0-0.839,0.169-1.566,0.507-2.182
			c0.339-0.615,0.814-1.087,1.424-1.416c0.611-0.329,1.307-0.493,2.089-0.493c0.792,0,1.488,0.162,2.088,0.485
			c0.602,0.325,1.067,0.78,1.396,1.367c0.328,0.587,0.493,1.262,0.493,2.024C84.94,90.813,84.917,91.033,84.869,91.271z
			 M82.043,89.061c-0.291-0.262-0.651-0.394-1.08-0.394c-0.448,0-0.821,0.134-1.116,0.401c-0.296,0.267-0.463,0.657-0.5,1.173h3.119
			C82.475,89.717,82.335,89.323,82.043,89.061z"/>
		<path fill="#986515" d="M93.839,87.587c0.696,0.567,1.135,1.348,1.315,2.34h-2.589c-0.077-0.344-0.234-0.61-0.472-0.802
			c-0.238-0.19-0.539-0.286-0.901-0.286c-0.429,0-0.783,0.169-1.059,0.509c-0.277,0.338-0.415,0.832-0.415,1.479
			c0,0.649,0.138,1.143,0.415,1.481c0.276,0.339,0.63,0.508,1.059,0.508c0.362,0,0.663-0.096,0.901-0.286
			c0.238-0.191,0.396-0.458,0.472-0.802h2.589c-0.181,0.992-0.62,1.772-1.315,2.34c-0.697,0.567-1.56,0.851-2.59,0.851
			c-0.781,0-1.476-0.164-2.081-0.493s-1.08-0.804-1.423-1.424c-0.344-0.619-0.515-1.345-0.515-2.175
			c0-0.839,0.169-1.566,0.507-2.182s0.814-1.087,1.424-1.416c0.61-0.329,1.307-0.493,2.088-0.493
			C92.279,86.736,93.143,87.02,93.839,87.587z"/>
		<path fill="#986515" d="M102.38,92.716v2.104h-1.102c-0.936,0-1.663-0.231-2.182-0.694c-0.52-0.462-0.78-1.228-0.78-2.296v-2.933
			h-1.072v-2.061h1.072v-1.96h2.446v1.96h1.604v2.061h-1.604v2.976c0,0.314,0.065,0.534,0.193,0.658
			c0.129,0.124,0.346,0.186,0.651,0.186H102.38z"/>
		<path fill="#986515" d="M136.102,84.704l-2.418,10.115h-3.033l-1.617-6.768l-1.631,6.768h-3.033l-2.418-10.115h2.662l1.301,7.325
			l1.775-7.325h2.674l1.774,7.325l1.316-7.325H136.102z"/>
		<path fill="#986515" d="M146.33,91.271h-5.536c0.028,0.601,0.181,1.032,0.457,1.295c0.276,0.262,0.63,0.393,1.06,0.393
			c0.362,0,0.662-0.091,0.9-0.271c0.238-0.182,0.396-0.415,0.473-0.701h2.59c-0.105,0.563-0.335,1.065-0.688,1.51
			c-0.353,0.443-0.801,0.791-1.345,1.044c-0.543,0.253-1.149,0.379-1.817,0.379c-0.781,0-1.476-0.164-2.081-0.493
			s-1.08-0.804-1.423-1.424c-0.344-0.619-0.516-1.345-0.516-2.175c0-0.839,0.169-1.566,0.508-2.182
			c0.338-0.615,0.813-1.087,1.423-1.416c0.611-0.329,1.308-0.493,2.089-0.493c0.792,0,1.488,0.162,2.089,0.485
			c0.602,0.325,1.066,0.78,1.396,1.367s0.493,1.262,0.493,2.024C146.401,90.813,146.378,91.033,146.33,91.271z M143.505,89.061
			c-0.292-0.262-0.651-0.394-1.081-0.394c-0.447,0-0.82,0.134-1.115,0.401c-0.296,0.267-0.463,0.657-0.5,1.173h3.118
			C143.937,89.717,143.796,89.323,143.505,89.061z"/>
		<path fill="#986515" d="M161.859,92.38c-0.424,0.768-1.034,1.366-1.83,1.796c-0.797,0.429-1.734,0.644-2.812,0.644h-3.82V84.704
			h3.82c1.087,0,2.026,0.21,2.818,0.63s1.399,1.011,1.823,1.773c0.425,0.764,0.637,1.642,0.637,2.633
			C162.496,90.732,162.284,91.612,161.859,92.38z M159.228,91.872c0.529-0.505,0.794-1.216,0.794-2.132
			c0-0.915-0.265-1.626-0.794-2.132c-0.529-0.505-1.271-0.758-2.226-0.758h-1.158v5.779h1.158
			C157.956,92.63,158.698,92.378,159.228,91.872z"/>
		<path fill="#986515" d="M172.825,91.271h-5.536c0.028,0.601,0.18,1.032,0.457,1.295c0.276,0.262,0.63,0.393,1.06,0.393
			c0.362,0,0.662-0.091,0.9-0.271c0.238-0.182,0.396-0.415,0.473-0.701h2.59c-0.105,0.563-0.335,1.065-0.688,1.51
			c-0.353,0.443-0.801,0.791-1.345,1.044c-0.543,0.253-1.149,0.379-1.817,0.379c-0.781,0-1.475-0.164-2.081-0.493
			c-0.605-0.329-1.08-0.804-1.423-1.424c-0.344-0.619-0.516-1.345-0.516-2.175c0-0.839,0.169-1.566,0.508-2.182
			c0.338-0.615,0.813-1.087,1.424-1.416s1.307-0.493,2.088-0.493c0.792,0,1.488,0.162,2.089,0.485
			c0.602,0.325,1.066,0.78,1.396,1.367c0.328,0.587,0.492,1.262,0.492,2.024C172.896,90.813,172.873,91.033,172.825,91.271z
			 M170,89.061c-0.291-0.262-0.651-0.394-1.081-0.394c-0.447,0-0.82,0.134-1.115,0.401c-0.296,0.267-0.463,0.657-0.501,1.173h3.119
			C170.432,89.717,170.291,89.323,170,89.061z"/>
		<path fill="#986515" d="M178.047,84.232v10.587h-2.446V84.232H178.047z"/>
		<path fill="#986515" d="M181.338,83.667c0.267-0.243,0.619-0.364,1.059-0.364c0.438,0,0.791,0.121,1.059,0.364
			c0.267,0.243,0.4,0.551,0.4,0.923c0,0.362-0.134,0.665-0.4,0.908c-0.268,0.244-0.62,0.365-1.059,0.365
			c-0.439,0-0.792-0.121-1.059-0.365c-0.268-0.243-0.401-0.546-0.401-0.908C180.937,84.218,181.07,83.91,181.338,83.667z
			 M183.611,86.836v7.983h-2.446v-7.983H183.611z"/>
		<path fill="#986515" d="M190.422,92.43l1.731-5.594h2.604l-2.833,7.983h-3.032l-2.833-7.983h2.604L190.422,92.43z"/>
		<path fill="#986515" d="M204.714,91.271h-5.536c0.028,0.601,0.181,1.032,0.458,1.295c0.276,0.262,0.629,0.393,1.059,0.393
			c0.362,0,0.663-0.091,0.901-0.271c0.238-0.182,0.396-0.415,0.472-0.701h2.59c-0.105,0.563-0.334,1.065-0.687,1.51
			c-0.354,0.443-0.802,0.791-1.346,1.044c-0.543,0.253-1.149,0.379-1.816,0.379c-0.782,0-1.476-0.164-2.082-0.493
			c-0.605-0.329-1.08-0.804-1.423-1.424c-0.344-0.619-0.516-1.345-0.516-2.175c0-0.839,0.169-1.566,0.508-2.182
			c0.338-0.615,0.813-1.087,1.424-1.416s1.307-0.493,2.089-0.493c0.791,0,1.488,0.162,2.088,0.485
			c0.602,0.325,1.067,0.78,1.396,1.367c0.328,0.587,0.492,1.262,0.492,2.024C204.785,90.813,204.763,91.033,204.714,91.271z
			 M201.889,89.061c-0.291-0.262-0.651-0.394-1.08-0.394c-0.448,0-0.82,0.134-1.116,0.401c-0.295,0.267-0.463,0.657-0.5,1.173h3.118
			C202.32,89.717,202.18,89.323,201.889,89.061z"/>
		<path fill="#986515" d="M211.117,87.18c0.48-0.287,1.003-0.43,1.566-0.43v2.618h-0.701c-0.649,0-1.152,0.139-1.51,0.415
			s-0.536,0.744-0.536,1.402v3.634h-2.446v-7.983h2.446v1.502C210.241,87.852,210.635,87.466,211.117,87.18z"/>
	</g>
</g>
</svg>
