<svg width="646" height="479" viewBox="0 0 646 479" fill="none" xmlns="http://www.w3.org/2000/svg">
<path d="M474.326 59.0807H140.584C138.944 59.0824 137.373 59.7343 136.214 60.8934C135.055 62.0524 134.403 63.624 134.401 65.2631V350.646C134.403 352.285 135.055 353.857 136.214 355.016C137.373 356.175 138.944 356.827 140.584 356.829H474.326C475.965 356.827 477.536 356.175 478.695 355.016C479.855 353.857 480.506 352.285 480.508 350.646V65.2631C480.506 63.6239 479.855 62.0524 478.695 60.8933C477.536 59.7343 475.965 59.0824 474.326 59.0807V59.0807ZM478.03 350.646C478.03 351.63 477.64 352.573 476.946 353.27C476.251 353.966 475.309 354.359 474.326 354.363H140.584C139.6 354.361 138.656 353.969 137.962 353.272C137.267 352.575 136.877 351.63 136.879 350.646V65.2631C136.877 64.279 137.267 63.3346 137.962 62.6377C138.656 61.9407 139.6 61.5483 140.584 61.5467H474.326C475.309 61.5503 476.251 61.9433 476.946 62.6398C477.64 63.3364 478.03 64.2796 478.03 65.2631V350.646Z" fill="#3F3D56" fill-opacity="0.4"/>
<path d="M217.62 306.085C217.62 306.525 217.608 306.965 217.585 307.393C217.249 313.834 214.453 319.899 209.775 324.339C205.097 328.779 198.894 331.254 192.445 331.254C185.995 331.254 179.792 328.779 175.114 324.339C170.436 319.899 167.641 313.834 167.304 307.393C167.281 306.965 167.27 306.525 167.27 306.085C167.268 302.778 167.917 299.502 169.181 296.446C170.446 293.39 172.3 290.613 174.638 288.273C176.976 285.934 179.752 284.078 182.807 282.812C185.862 281.546 189.137 280.894 192.445 280.894C195.752 280.894 199.027 281.546 202.082 282.812C205.138 284.078 207.914 285.934 210.252 288.273C212.59 290.613 214.444 293.39 215.708 296.446C216.972 299.502 217.622 302.778 217.62 306.085Z" fill="#A67D01" fill-opacity="0.9"/>
<path d="M448.392 289.298H250.581C249.469 289.299 248.403 289.742 247.617 290.529C246.832 291.316 246.39 292.383 246.39 293.494C246.39 294.606 246.832 295.673 247.617 296.46C248.403 297.247 249.469 297.69 250.581 297.691H448.392C449.504 297.69 450.57 297.247 451.356 296.46C452.141 295.673 452.583 294.606 452.583 293.494C452.583 292.383 452.141 291.316 451.356 290.529C450.57 289.742 449.504 289.299 448.392 289.298V289.298Z" fill="#A67D01" fill-opacity="0.9"/>
<path d="M335.698 314.479H250.581C249.469 314.479 248.403 314.92 247.617 315.706C246.831 316.492 246.39 317.558 246.39 318.67C246.39 319.781 246.831 320.847 247.617 321.633C248.403 322.419 249.469 322.861 250.581 322.861H335.698C336.809 322.861 337.875 322.419 338.661 321.633C339.447 320.847 339.889 319.781 339.889 318.67C339.889 317.558 339.447 316.492 338.661 315.706C337.875 314.92 336.809 314.479 335.698 314.479V314.479Z" fill="#E6E6E6"/>
<path d="M553.615 258.16H219.876C218.007 258.157 216.215 257.414 214.893 256.092C213.572 254.771 212.828 252.979 212.826 251.11V104.648C212.829 102.779 213.572 100.987 214.893 99.6656C216.215 98.3441 218.007 97.6008 219.876 97.5987H553.615C555.484 97.6008 557.276 98.3442 558.597 99.6657C559.919 100.987 560.662 102.779 560.664 104.648V251.11C560.662 252.979 559.919 254.771 558.597 256.092C557.276 257.414 555.484 258.157 553.615 258.16V258.16Z" fill="#A67D01" fill-opacity="0.9"/>
<path d="M287.841 149.518C286.729 149.518 285.661 149.96 284.875 150.747C284.088 151.534 283.646 152.601 283.646 153.714C283.646 154.827 284.088 155.894 284.875 156.681C285.661 157.468 286.729 157.91 287.841 157.91H485.649C486.762 157.91 487.829 157.468 488.616 156.681C489.403 155.894 489.845 154.827 489.845 153.714C489.845 152.601 489.403 151.534 488.616 150.747C487.829 149.96 486.762 149.518 485.649 149.518H287.841Z" fill="white"/>
<path d="M287.841 173.831C286.73 173.832 285.664 174.275 284.879 175.062C284.093 175.848 283.652 176.915 283.652 178.026C283.652 179.138 284.093 180.204 284.879 180.991C285.664 181.778 286.73 182.221 287.841 182.222H485.649C486.761 182.221 487.826 181.778 488.612 180.991C489.397 180.204 489.838 179.138 489.838 178.026C489.838 176.915 489.397 175.848 488.612 175.062C487.826 174.275 486.761 173.832 485.649 173.831H287.841Z" fill="white"/>
<path d="M287.841 197.848C286.73 197.85 285.664 198.293 284.879 199.08C284.093 199.866 283.652 200.933 283.652 202.044C283.652 203.156 284.093 204.222 284.879 205.009C285.664 205.796 286.73 206.238 287.841 206.24H372.959C374.07 206.238 375.136 205.796 375.921 205.009C376.707 204.222 377.148 203.156 377.148 202.044C377.148 200.933 376.707 199.866 375.921 199.08C375.136 198.293 374.07 197.85 372.959 197.848H287.841Z" fill="white"/>
<path d="M26.9137 26.5495C29.7927 26.5495 32.1266 24.2155 32.1266 21.3365C32.1266 18.4574 29.7927 16.1235 26.9137 16.1235C24.0346 16.1235 21.7007 18.4574 21.7007 21.3365C21.7007 24.2155 24.0346 26.5495 26.9137 26.5495Z" fill="#A67D01"/>
<path d="M45.1591 26.5495C48.0381 26.5495 50.3721 24.2155 50.3721 21.3365C50.3721 18.4574 48.0381 16.1235 45.1591 16.1235C42.28 16.1235 39.9461 18.4574 39.9461 21.3365C39.9461 24.2155 42.28 26.5495 45.1591 26.5495Z" fill="#A67D01"/>
<path d="M63.4045 26.5495C66.2836 26.5495 68.6175 24.2155 68.6175 21.3365C68.6175 18.4574 66.2836 16.1235 63.4045 16.1235C60.5255 16.1235 58.1915 18.4574 58.1915 21.3365C58.1915 24.2155 60.5255 26.5495 63.4045 26.5495Z" fill="#A67D01"/>
<path d="M637.483 415.91H7.582C5.57184 415.907 3.64467 415.108 2.22327 413.686C0.801866 412.265 0.00231054 410.338 0 408.328V7.58154C0.00232133 5.57143 0.801901 3.64431 2.22331 2.22298C3.64472 0.801659 5.57188 0.00219937 7.582 0H637.483C639.494 0.00219937 641.421 0.801659 642.842 2.22298C644.263 3.64431 645.063 5.57143 645.065 7.58154V408.328C645.063 410.338 644.264 412.265 642.842 413.686C641.421 415.108 639.494 415.907 637.483 415.91V415.91ZM7.582 3.00001C6.36726 3.00133 5.20265 3.48444 4.34366 4.34335C3.48467 5.20225 3.00145 6.36681 3 7.58154V408.328C3.00144 409.542 3.48465 410.707 4.34363 411.566C5.20261 412.425 6.36722 412.908 7.582 412.91H637.483C638.698 412.908 639.863 412.425 640.722 411.566C641.581 410.707 642.064 409.542 642.065 408.328V7.58154C642.064 6.36681 641.581 5.20224 640.722 4.34334C639.863 3.48443 638.698 3.00132 637.483 3L7.582 3.00001Z" fill="#E6E6E6"/>
<path d="M240.32 460H237.52L231.18 450.42V460H228.38V446.02H231.18L237.52 455.62V446.02H240.32V460ZM248.007 460.18C246.94 460.18 245.98 459.947 245.127 459.48C244.274 459 243.6 458.327 243.107 457.46C242.627 456.593 242.387 455.593 242.387 454.46C242.387 453.327 242.634 452.327 243.127 451.46C243.634 450.593 244.32 449.927 245.187 449.46C246.054 448.98 247.02 448.74 248.087 448.74C249.154 448.74 250.12 448.98 250.987 449.46C251.854 449.927 252.534 450.593 253.027 451.46C253.534 452.327 253.787 453.327 253.787 454.46C253.787 455.593 253.527 456.593 253.007 457.46C252.5 458.327 251.807 459 250.927 459.48C250.06 459.947 249.087 460.18 248.007 460.18ZM248.007 457.74C248.514 457.74 248.987 457.62 249.427 457.38C249.88 457.127 250.24 456.753 250.507 456.26C250.774 455.767 250.907 455.167 250.907 454.46C250.907 453.407 250.627 452.6 250.067 452.04C249.52 451.467 248.847 451.18 248.047 451.18C247.247 451.18 246.574 451.467 246.027 452.04C245.494 452.6 245.227 453.407 245.227 454.46C245.227 455.513 245.487 456.327 246.007 456.9C246.54 457.46 247.207 457.74 248.007 457.74ZM259.927 453C259.927 451.627 260.233 450.4 260.847 449.32C261.473 448.227 262.32 447.38 263.387 446.78C264.467 446.167 265.673 445.86 267.007 445.86C268.567 445.86 269.933 446.26 271.107 447.06C272.28 447.86 273.1 448.967 273.567 450.38H270.347C270.027 449.713 269.573 449.213 268.987 448.88C268.413 448.547 267.747 448.38 266.987 448.38C266.173 448.38 265.447 448.573 264.807 448.96C264.18 449.333 263.687 449.867 263.327 450.56C262.98 451.253 262.807 452.067 262.807 453C262.807 453.92 262.98 454.733 263.327 455.44C263.687 456.133 264.18 456.673 264.807 457.06C265.447 457.433 266.173 457.62 266.987 457.62C267.747 457.62 268.413 457.453 268.987 457.12C269.573 456.773 270.027 456.267 270.347 455.6H273.567C273.1 457.027 272.28 458.14 271.107 458.94C269.947 459.727 268.58 460.12 267.007 460.12C265.673 460.12 264.467 459.82 263.387 459.22C262.32 458.607 261.473 457.76 260.847 456.68C260.233 455.6 259.927 454.373 259.927 453ZM280.878 460.18C279.811 460.18 278.851 459.947 277.998 459.48C277.145 459 276.471 458.327 275.978 457.46C275.498 456.593 275.258 455.593 275.258 454.46C275.258 453.327 275.505 452.327 275.998 451.46C276.505 450.593 277.191 449.927 278.058 449.46C278.925 448.98 279.891 448.74 280.958 448.74C282.025 448.74 282.991 448.98 283.858 449.46C284.725 449.927 285.405 450.593 285.898 451.46C286.405 452.327 286.658 453.327 286.658 454.46C286.658 455.593 286.398 456.593 285.878 457.46C285.371 458.327 284.678 459 283.798 459.48C282.931 459.947 281.958 460.18 280.878 460.18ZM280.878 457.74C281.385 457.74 281.858 457.62 282.298 457.38C282.751 457.127 283.111 456.753 283.378 456.26C283.645 455.767 283.778 455.167 283.778 454.46C283.778 453.407 283.498 452.6 282.938 452.04C282.391 451.467 281.718 451.18 280.918 451.18C280.118 451.18 279.445 451.467 278.898 452.04C278.365 452.6 278.098 453.407 278.098 454.46C278.098 455.513 278.358 456.327 278.878 456.9C279.411 457.46 280.078 457.74 280.878 457.74ZM302.472 448.76C303.832 448.76 304.925 449.18 305.752 450.02C306.592 450.847 307.012 452.007 307.012 453.5V460H304.212V453.88C304.212 453.013 303.992 452.353 303.552 451.9C303.112 451.433 302.512 451.2 301.752 451.2C300.992 451.2 300.385 451.433 299.932 451.9C299.492 452.353 299.272 453.013 299.272 453.88V460H296.472V453.88C296.472 453.013 296.252 452.353 295.812 451.9C295.372 451.433 294.772 451.2 294.012 451.2C293.239 451.2 292.625 451.433 292.172 451.9C291.732 452.353 291.512 453.013 291.512 453.88V460H288.712V448.92H291.512V450.26C291.872 449.793 292.332 449.427 292.892 449.16C293.465 448.893 294.092 448.76 294.772 448.76C295.639 448.76 296.412 448.947 297.092 449.32C297.772 449.68 298.299 450.2 298.672 450.88C299.032 450.24 299.552 449.727 300.232 449.34C300.925 448.953 301.672 448.76 302.472 448.76ZM323.429 448.76C324.789 448.76 325.882 449.18 326.709 450.02C327.549 450.847 327.969 452.007 327.969 453.5V460H325.169V453.88C325.169 453.013 324.949 452.353 324.509 451.9C324.069 451.433 323.469 451.2 322.709 451.2C321.949 451.2 321.342 451.433 320.889 451.9C320.449 452.353 320.229 453.013 320.229 453.88V460H317.429V453.88C317.429 453.013 317.209 452.353 316.769 451.9C316.329 451.433 315.729 451.2 314.969 451.2C314.196 451.2 313.582 451.433 313.129 451.9C312.689 452.353 312.469 453.013 312.469 453.88V460H309.669V448.92H312.469V450.26C312.829 449.793 313.289 449.427 313.849 449.16C314.422 448.893 315.049 448.76 315.729 448.76C316.596 448.76 317.369 448.947 318.049 449.32C318.729 449.68 319.256 450.2 319.629 450.88C319.989 450.24 320.509 449.727 321.189 449.34C321.882 448.953 322.629 448.76 323.429 448.76ZM340.926 454.22C340.926 454.62 340.899 454.98 340.846 455.3H332.746C332.813 456.1 333.093 456.727 333.586 457.18C334.079 457.633 334.686 457.86 335.406 457.86C336.446 457.86 337.186 457.413 337.626 456.52H340.646C340.326 457.587 339.713 458.467 338.806 459.16C337.899 459.84 336.786 460.18 335.466 460.18C334.399 460.18 333.439 459.947 332.586 459.48C331.746 459 331.086 458.327 330.606 457.46C330.139 456.593 329.906 455.593 329.906 454.46C329.906 453.313 330.139 452.307 330.606 451.44C331.073 450.573 331.726 449.907 332.566 449.44C333.406 448.973 334.373 448.74 335.466 448.74C336.519 448.74 337.459 448.967 338.286 449.42C339.126 449.873 339.773 450.52 340.226 451.36C340.693 452.187 340.926 453.14 340.926 454.22ZM338.026 453.42C338.013 452.7 337.753 452.127 337.246 451.7C336.739 451.26 336.119 451.04 335.386 451.04C334.693 451.04 334.106 451.253 333.626 451.68C333.159 452.093 332.873 452.673 332.766 453.42H338.026ZM349.11 448.76C350.43 448.76 351.497 449.18 352.31 450.02C353.123 450.847 353.53 452.007 353.53 453.5V460H350.73V453.88C350.73 453 350.51 452.327 350.07 451.86C349.63 451.38 349.03 451.14 348.27 451.14C347.497 451.14 346.883 451.38 346.43 451.86C345.99 452.327 345.77 453 345.77 453.88V460H342.97V448.92H345.77V450.3C346.143 449.82 346.617 449.447 347.19 449.18C347.777 448.9 348.417 448.76 349.11 448.76ZM359.453 451.22V456.58C359.453 456.953 359.539 457.227 359.713 457.4C359.899 457.56 360.206 457.64 360.633 457.64H361.933V460H360.173C357.813 460 356.633 458.853 356.633 456.56V451.22H355.313V448.92H356.633V446.18H359.453V448.92H361.933V451.22H359.453ZM380.292 446.04V460H377.492V454.06H371.512V460H368.712V446.04H371.512V451.78H377.492V446.04H380.292ZM384.468 447.6C383.975 447.6 383.561 447.447 383.228 447.14C382.908 446.82 382.748 446.427 382.748 445.96C382.748 445.493 382.908 445.107 383.228 444.8C383.561 444.48 383.975 444.32 384.468 444.32C384.961 444.32 385.368 444.48 385.688 444.8C386.021 445.107 386.188 445.493 386.188 445.96C386.188 446.427 386.021 446.82 385.688 447.14C385.368 447.447 384.961 447.6 384.468 447.6ZM385.848 448.92V460H383.048V448.92H385.848ZM392.854 460.18C391.948 460.18 391.134 460.02 390.414 459.7C389.694 459.367 389.121 458.92 388.694 458.36C388.281 457.8 388.054 457.18 388.014 456.5H390.834C390.888 456.927 391.094 457.28 391.454 457.56C391.828 457.84 392.288 457.98 392.834 457.98C393.368 457.98 393.781 457.873 394.074 457.66C394.381 457.447 394.534 457.173 394.534 456.84C394.534 456.48 394.348 456.213 393.974 456.04C393.614 455.853 393.034 455.653 392.234 455.44C391.408 455.24 390.728 455.033 390.194 454.82C389.674 454.607 389.221 454.28 388.834 453.84C388.461 453.4 388.274 452.807 388.274 452.06C388.274 451.447 388.448 450.887 388.794 450.38C389.154 449.873 389.661 449.473 390.314 449.18C390.981 448.887 391.761 448.74 392.654 448.74C393.974 448.74 395.028 449.073 395.814 449.74C396.601 450.393 397.034 451.28 397.114 452.4H394.434C394.394 451.96 394.208 451.613 393.874 451.36C393.554 451.093 393.121 450.96 392.574 450.96C392.068 450.96 391.674 451.053 391.394 451.24C391.128 451.427 390.994 451.687 390.994 452.02C390.994 452.393 391.181 452.68 391.554 452.88C391.928 453.067 392.508 453.26 393.294 453.46C394.094 453.66 394.754 453.867 395.274 454.08C395.794 454.293 396.241 454.627 396.614 455.08C397.001 455.52 397.201 456.107 397.214 456.84C397.214 457.48 397.034 458.053 396.674 458.56C396.328 459.067 395.821 459.467 395.154 459.76C394.501 460.04 393.734 460.18 392.854 460.18ZM402.773 451.22V456.58C402.773 456.953 402.859 457.227 403.033 457.4C403.219 457.56 403.526 457.64 403.953 457.64H405.253V460H403.493C401.133 460 399.953 458.853 399.953 456.56V451.22H398.633V448.92H399.953V446.18H402.773V448.92H405.253V451.22H402.773ZM412.187 460.18C411.12 460.18 410.16 459.947 409.307 459.48C408.453 459 407.78 458.327 407.287 457.46C406.807 456.593 406.567 455.593 406.567 454.46C406.567 453.327 406.813 452.327 407.307 451.46C407.813 450.593 408.5 449.927 409.367 449.46C410.233 448.98 411.2 448.74 412.267 448.74C413.333 448.74 414.3 448.98 415.167 449.46C416.033 449.927 416.713 450.593 417.207 451.46C417.713 452.327 417.967 453.327 417.967 454.46C417.967 455.593 417.707 456.593 417.187 457.46C416.68 458.327 415.987 459 415.107 459.48C414.24 459.947 413.267 460.18 412.187 460.18ZM412.187 457.74C412.693 457.74 413.167 457.62 413.607 457.38C414.06 457.127 414.42 456.753 414.687 456.26C414.953 455.767 415.087 455.167 415.087 454.46C415.087 453.407 414.807 452.6 414.247 452.04C413.7 451.467 413.027 451.18 412.227 451.18C411.427 451.18 410.753 451.467 410.207 452.04C409.673 452.6 409.407 453.407 409.407 454.46C409.407 455.513 409.667 456.327 410.187 456.9C410.72 457.46 411.387 457.74 412.187 457.74ZM422.821 450.64C423.181 450.053 423.647 449.593 424.221 449.26C424.807 448.927 425.474 448.76 426.221 448.76V451.7H425.481C424.601 451.7 423.934 451.907 423.481 452.32C423.041 452.733 422.821 453.453 422.821 454.48V460H420.021V448.92H422.821V450.64ZM438.707 448.92L431.847 465.24H428.867L431.267 459.72L426.827 448.92H429.967L432.827 456.66L435.727 448.92H438.707Z" fill="#494343" fill-opacity="0.7"/>
</svg>
